<?xml version="1.0" standalone="no"?>
<!DOCTYPE svg PUBLIC "-//W3C//DTD SVG 20010904//EN"
 "http://www.w3.org/TR/2001/REC-SVG-20010904/DTD/svg10.dtd">
<svg version="1.0" xmlns="http://www.w3.org/2000/svg"
 width="79.000000pt" height="79.000000pt" viewBox="0 0 79.000000 79.000000"
 preserveAspectRatio="xMidYMid meet">
<metadata>
Created by potrace 1.14, written by Peter Selinger 2001-2017
</metadata>
<g transform="translate(0.000000,79.000000) scale(0.100000,-0.100000)"
fill="#000000" stroke="none">
<path d="M10 734 c0 -41 3 -53 13 -48 39 23 64 46 80 73 l18 31 -55 0 -56 0 0
-56z"/>
<path d="M219 772 c16 -31 65 -74 98 -88 69 -29 153 -12 206 42 65 65 68 64
-133 64 -170 0 -180 -1 -171 -18z"/>
<path d="M677 759 c17 -29 77 -79 95 -79 5 0 8 25 8 55 l0 55 -61 0 -60 0 18
-31z"/>
<path d="M302 579 c-125 -63 -136 -250 -20 -326 56 -38 132 -43 193 -13 128
62 141 249 23 328 -56 36 -137 41 -196 11z"/>
<path d="M10 410 l0 -181 31 18 c17 10 43 36 58 57 38 57 38 155 0 212 -15 21
-41 47 -58 57 l-31 18 0 -181z"/>
<path d="M734 568 c-58 -41 -79 -84 -79 -158 0 -54 5 -73 24 -102 22 -32 78
-78 94 -78 4 0 7 81 7 180 0 99 -3 180 -8 180 -4 0 -21 -10 -38 -22z"/>
<path d="M302 129 c-43 -22 -74 -56 -92 -103 l-10 -26 190 0 190 0 -10 26
c-41 107 -164 154 -268 103z"/>
<path d="M10 70 l0 -70 59 0 60 0 -10 29 c-11 30 -60 85 -91 102 -17 9 -18 4
-18 -61z"/>
<path d="M734 118 c-40 -31 -61 -58 -73 -91 l-10 -27 65 0 64 0 0 70 c0 39 -4
70 -9 70 -4 0 -21 -10 -37 -22z"/>
</g>
</svg>
