<?xml version="1.0" standalone="no"?>
<!DOCTYPE svg PUBLIC "-//W3C//DTD SVG 20010904//EN"
 "http://www.w3.org/TR/2001/REC-SVG-20010904/DTD/svg10.dtd">
<svg version="1.0" xmlns="http://www.w3.org/2000/svg"
 width="345.000000pt" height="345.000000pt" viewBox="0 0 345.000000 345.000000"
 preserveAspectRatio="xMidYMid meet">
<metadata>
Created by potrace 1.14, written by Peter Selinger 2001-2017
</metadata>
<g transform="translate(0.000000,345.000000) scale(0.100000,-0.100000)"
fill="#000000" stroke="none">
<path d="M100 1740 l0 -1400 1620 0 1620 0 0 1400 0 1400 -1620 0 -1620 0 0
-1400z m363 1297 c65 -49 82 -83 82 -163 0 -62 -3 -75 -27 -107 -49 -63 -85
-82 -158 -82 -52 0 -72 5 -98 23 -102 74 -123 200 -47 289 48 57 88 74 157 70
42 -2 65 -10 91 -30z m450 0 c65 -49 82 -83 82 -163 0 -62 -3 -75 -27 -107
-49 -63 -85 -82 -158 -82 -52 0 -72 5 -98 23 -102 74 -123 200 -47 289 48 57
88 74 157 70 42 -2 65 -10 91 -30z m425 18 c161 -68 161 -292 0 -360 -96 -40
-205 4 -249 100 -73 158 89 326 249 260z m485 -18 c65 -49 82 -83 82 -163 0
-62 -3 -75 -27 -107 -49 -63 -85 -82 -158 -82 -52 0 -72 5 -98 23 -102 74
-123 200 -47 289 48 57 88 74 157 70 42 -2 65 -10 91 -30z m425 18 c161 -68
161 -292 0 -360 -96 -40 -205 4 -249 100 -73 158 89 326 249 260z m485 -18
c65 -49 82 -83 82 -163 0 -62 -3 -75 -27 -107 -50 -64 -85 -82 -160 -82 -74 0
-99 13 -151 77 -32 39 -44 101 -33 161 8 41 68 114 110 133 50 23 137 13 179
-19z m450 0 c65 -49 82 -83 82 -163 0 -62 -3 -75 -27 -107 -49 -63 -85 -82
-158 -82 -52 0 -72 5 -98 23 -102 74 -123 200 -47 289 48 57 88 74 157 70 42
-2 65 -10 91 -30z m-2720 -460 c64 -48 82 -84 82 -158 0 -56 -4 -71 -27 -102
-49 -63 -85 -82 -158 -82 -52 0 -72 5 -98 23 -102 73 -122 192 -47 279 48 57
88 74 157 70 42 -2 65 -10 91 -30z m450 0 c64 -48 82 -84 82 -158 0 -56 -4
-71 -27 -102 -49 -63 -85 -82 -158 -82 -52 0 -72 5 -98 23 -102 73 -122 192
-47 279 48 57 88 74 157 70 42 -2 65 -10 91 -30z m460 0 c64 -48 82 -84 82
-158 0 -56 -4 -71 -27 -102 -50 -65 -84 -82 -163 -82 -57 0 -76 4 -103 23
-102 73 -122 192 -47 279 49 58 87 74 161 70 48 -2 69 -9 97 -30z m450 0 c64
-48 82 -84 82 -158 0 -56 -4 -71 -27 -102 -49 -63 -85 -82 -158 -82 -52 0 -72
5 -98 23 -102 73 -122 192 -47 279 48 57 88 74 157 70 42 -2 65 -10 91 -30z
m460 0 c64 -48 82 -84 82 -158 0 -56 -4 -71 -27 -102 -50 -65 -84 -82 -163
-82 -57 0 -76 4 -103 23 -102 73 -122 192 -47 279 49 58 87 74 161 70 48 -2
69 -9 97 -30z m450 0 c64 -48 82 -84 82 -158 0 -56 -4 -71 -27 -102 -50 -64
-85 -82 -160 -82 -52 0 -73 5 -94 21 -105 78 -124 193 -47 284 48 55 84 71
155 67 42 -2 65 -10 91 -30z m450 0 c64 -48 82 -84 82 -158 0 -56 -4 -71 -27
-102 -49 -63 -85 -82 -158 -82 -52 0 -72 5 -98 23 -102 73 -122 192 -47 279
48 57 88 74 157 70 42 -2 65 -10 91 -30z m-2720 -450 c64 -48 82 -84 82 -158
0 -56 -4 -71 -27 -102 -49 -63 -85 -82 -158 -82 -52 0 -72 5 -98 23 -102 73
-122 192 -47 279 48 57 88 74 157 70 42 -2 65 -10 91 -30z m450 0 c64 -48 82
-84 82 -158 0 -56 -4 -71 -27 -102 -49 -63 -85 -82 -158 -82 -52 0 -72 5 -98
23 -102 73 -122 192 -47 279 48 57 88 74 157 70 42 -2 65 -10 91 -30z m450 -1
c120 -65 117 -247 -3 -315 -126 -70 -282 18 -282 158 0 146 153 230 285 157z
m920 1 c64 -48 82 -84 82 -158 0 -56 -4 -71 -27 -102 -50 -65 -84 -82 -163
-82 -57 0 -76 4 -103 23 -102 73 -122 192 -47 279 49 58 87 74 161 70 48 -2
69 -9 97 -30z m450 0 c64 -48 82 -84 82 -158 0 -56 -4 -71 -27 -102 -50 -64
-85 -82 -160 -82 -52 0 -73 5 -94 21 -105 78 -124 193 -47 284 48 55 84 71
155 67 42 -2 65 -10 91 -30z m450 0 c64 -48 82 -84 82 -158 0 -56 -4 -71 -27
-102 -49 -63 -85 -82 -158 -82 -52 0 -72 5 -98 23 -102 73 -122 192 -47 279
48 57 88 74 157 70 42 -2 65 -10 91 -30z m-2720 -450 c65 -49 82 -83 82 -163
0 -62 -3 -75 -27 -107 -49 -63 -85 -82 -158 -82 -52 0 -72 5 -98 23 -102 74
-123 200 -47 289 48 57 88 74 157 70 42 -2 65 -10 91 -30z m440 -1 c86 -47
116 -169 64 -258 -70 -120 -244 -120 -314 0 -65 111 -4 254 121 282 41 9 83 2
129 -24z m447 9 c30 -16 73 -60 90 -95 7 -13 13 -47 13 -75 0 -106 -82 -188
-188 -188 -74 0 -139 42 -175 113 -18 34 -16 119 3 156 21 41 80 92 115 100
15 3 32 7 37 9 16 5 78 -7 105 -20z m463 -9 c55 -29 90 -93 90 -161 0 -189
-245 -259 -340 -97 -65 111 -4 254 121 282 41 9 83 2 129 -24z m435 19 c161
-68 161 -292 0 -360 -96 -40 -205 4 -249 100 -73 158 89 326 249 260z m485
-18 c65 -49 82 -83 82 -163 0 -62 -3 -75 -27 -107 -50 -64 -85 -82 -160 -82
-74 0 -99 13 -151 77 -32 39 -44 101 -33 161 8 41 68 114 110 133 50 23 137
13 179 -19z m450 0 c65 -49 82 -83 82 -163 0 -62 -3 -75 -27 -107 -49 -63 -85
-82 -158 -82 -52 0 -72 5 -98 23 -102 74 -123 200 -47 289 48 57 88 74 157 70
42 -2 65 -10 91 -30z m-2720 -460 c64 -48 82 -84 82 -158 0 -56 -4 -71 -27
-102 -49 -63 -85 -82 -158 -82 -52 0 -72 5 -98 23 -102 73 -122 192 -47 279
48 57 88 74 157 70 42 -2 65 -10 91 -30z m1350 -1 c85 -46 115 -162 64 -248
-70 -120 -244 -120 -314 0 -63 107 -3 244 121 272 41 9 83 2 129 -24z m470 1
c64 -48 82 -84 82 -158 0 -56 -4 -71 -27 -102 -50 -65 -84 -82 -163 -82 -57 0
-76 4 -103 23 -102 73 -122 192 -47 279 49 58 87 74 161 70 48 -2 69 -9 97
-30z m450 0 c64 -48 82 -84 82 -158 0 -56 -4 -71 -27 -102 -50 -64 -85 -82
-160 -82 -52 0 -73 5 -94 21 -105 78 -124 193 -47 284 48 55 84 71 155 67 42
-2 65 -10 91 -30z m450 0 c64 -48 82 -84 82 -158 0 -56 -4 -71 -27 -102 -49
-63 -85 -82 -158 -82 -52 0 -72 5 -98 23 -102 73 -122 192 -47 279 48 57 88
74 157 70 42 -2 65 -10 91 -30z m-2720 -450 c65 -49 82 -83 82 -163 0 -62 -3
-75 -27 -107 -49 -63 -85 -82 -158 -82 -52 0 -72 5 -98 23 -102 74 -123 200
-47 289 48 57 88 74 157 70 42 -2 65 -10 91 -30z m887 8 c30 -16 73 -60 90
-95 7 -13 13 -47 13 -75 0 -106 -82 -188 -188 -188 -74 0 -139 42 -175 113
-18 34 -16 119 3 156 21 41 80 92 115 100 15 3 32 7 37 9 16 5 78 -7 105 -20z
m1373 -9 c120 -65 119 -253 -1 -323 -162 -95 -344 90 -251 256 52 93 156 120
252 67z"/>
<path d="M1167 2105 c-48 -33 -67 -72 -67 -137 0 -100 60 -158 165 -158 105 0
165 58 165 158 0 103 -60 162 -165 162 -48 0 -68 -5 -98 -25z"/>
<path d="M722 1660 c-50 -31 -72 -75 -72 -145 0 -106 58 -165 160 -165 102 0
160 59 160 165 0 70 -22 114 -72 145 -45 27 -131 27 -176 0z"/>
<path d="M1182 1664 c-49 -25 -75 -69 -80 -135 -8 -106 45 -170 149 -177 106
-8 170 45 177 149 5 68 -16 119 -61 151 -41 30 -138 36 -185 12z"/>
<path d="M1632 1660 c-50 -31 -72 -75 -72 -145 0 -106 57 -165 161 -165 100 0
159 63 159 170 0 65 -24 110 -72 140 -45 27 -131 27 -176 0z"/>
<path d="M1632 1200 c-48 -30 -72 -75 -72 -140 0 -101 60 -160 161 -160 98 0
159 63 159 165 0 59 -25 106 -72 135 -45 27 -131 27 -176 0z"/>
<path d="M1182 754 c-49 -25 -75 -69 -80 -135 -8 -106 45 -170 149 -177 106
-8 170 45 177 149 5 68 -16 119 -61 151 -41 30 -138 36 -185 12z"/>
<path d="M2542 750 c-50 -31 -72 -75 -72 -145 0 -106 58 -165 160 -165 102 0
160 59 160 165 0 70 -22 114 -72 145 -45 27 -131 27 -176 0z"/>
</g>
</svg>
